<?xml version="1.0" encoding="utf-8"?>
<!-- Generator: Adobe Illustrator 28.1.0, SVG Export Plug-In . SVG Version: 6.00 Build 0)  -->
<svg version="1.1" id="Capa_1" xmlns="http://www.w3.org/2000/svg" xmlns:xlink="http://www.w3.org/1999/xlink" x="0px" y="0px"
	 viewBox="0 0 280 280" style="enable-background:new 0 0 280 280;" xml:space="preserve">
<style type="text/css">
	.st0{fill-rule:evenodd;clip-rule:evenodd;fill:#E30613;}
	.st1{fill-rule:evenodd;clip-rule:evenodd;fill:#FFFFFF;}
	.st2{fill-rule:evenodd;clip-rule:evenodd;fill:#EF7D00;}
	.st3{fill-rule:evenodd;clip-rule:evenodd;fill:#76B82A;}
	.st4{fill-rule:evenodd;clip-rule:evenodd;fill:#009FE3;}
	.st5{fill-rule:evenodd;clip-rule:evenodd;fill:#005CA9;}
	.st6{fill-rule:evenodd;clip-rule:evenodd;fill:#9F4C97;}
	.st7{fill-rule:evenodd;clip-rule:evenodd;fill:#EB5E9D;}
	.st8{fill-rule:evenodd;clip-rule:evenodd;fill:#E6007E;}
	.st9{fill-rule:evenodd;clip-rule:evenodd;fill:#7E3910;}
</style>
<g>
	<path fill="#E30613" d="M261.47,88.08c-6.66-15.99-16.09-30.24-28.29-42.54c-12.1-12.3-26.14-21.83-41.82-28.6
		C175.06,9.97,157.84,6.49,140,6.49c-17.94,0-34.95,3.49-51.25,10.46c-15.79,6.77-29.83,16.3-41.93,28.6
		c-12.2,12.3-21.63,26.55-28.29,42.54c-6.87,16.5-10.35,33.83-10.35,51.97c0,18.04,3.49,35.36,10.35,51.87
		c6.66,15.99,16.09,30.24,28.29,42.54c12.1,12.3,26.14,21.83,41.93,28.6c16.3,6.97,33.31,10.46,51.25,10.46
		c17.84,0,35.06-3.49,51.36-10.46c15.68-6.77,29.73-16.3,41.82-28.6c12.2-12.3,21.63-26.55,28.29-42.54
		c6.87-16.5,10.35-33.83,10.35-51.87C271.82,121.91,268.34,104.58,261.47,88.08L261.47,88.08z M196.48,123.24
		c6.05,0,11.38,2.15,15.79,6.56c4.31,4.41,6.46,9.74,6.46,15.89c0,6.15-2.15,11.48-6.46,15.79c-4.41,4.41-9.74,6.66-15.79,6.66
		s-11.28-2.26-15.58-6.66c-4.41-4.31-6.56-9.64-6.56-15.79c0-6.15,2.15-11.48,6.56-15.89C185.21,125.39,190.43,123.24,196.48,123.24
		L196.48,123.24z M36.78,120.37c5.33-5.54,11.69-8.2,19.37-8.1c6.15-0.1,11.79,1.85,16.71,5.74c4.82,3.79,8,8.71,9.64,14.66H71.32
		c-1.44-2.87-3.49-5.33-6.05-7.07c-2.87-1.85-5.84-2.77-9.12-2.77c-4.72,0-8.71,1.74-11.99,5.02c-3.38,3.38-5.02,7.38-4.92,12.1
		c-0.1,4.72,1.54,8.71,4.92,12.1c3.28,3.28,7.28,5.02,11.99,5.02c3.28,0,6.25-0.92,9.12-2.67c2.56-1.85,4.61-4.2,6.05-7.07h11.17
		c-1.64,5.95-4.82,10.76-9.64,14.66c-4.92,3.79-10.56,5.64-16.71,5.64c-7.69,0-14.04-2.67-19.37-8c-5.43-5.43-8.1-12.1-8.1-19.68
		C28.68,132.26,31.34,125.8,36.78,120.37L36.78,120.37z M108.74,128.78c2.87-3.79,7.89-5.74,15.07-5.64
		c4.61-0.1,8.71,0.82,12.4,2.77c3.49,1.85,5.33,5.43,5.33,10.56v31.37h-10.66v-4.41c-3.28,2.87-7.89,4.31-13.74,4.41
		c-3.59-0.1-6.56-1.13-8.71-2.97c-2.46-2.26-3.69-5.33-3.59-9.12c-0.1-5.43,1.85-9.23,5.84-11.58c2.36-1.33,5.43-2.26,9.23-2.77
		l8.2-1.33c1.64-0.72,2.46-1.85,2.46-3.28c-0.1-1.74-0.62-2.97-1.85-3.59c-1.23-0.72-2.97-1.13-5.23-1.03
		c-2.67-0.1-4.51,0.62-5.64,2.05c-0.72,0.82-1.33,2.05-1.54,3.9h-10.66C105.97,134.21,106.89,131.13,108.74,128.78L108.74,128.78z
		 M87.93,112.27h10.66v55.56H87.93V112.27L87.93,112.27z M158.86,130.72c2.15-2.97,4.72-4.92,7.59-6.05l4.1-1.13l2.77-0.2l0.1,10.87
		l-3.28-0.21c-2.05,0-4,0.62-5.84,1.85c-1.64,1.13-2.97,2.46-3.69,4.1c-0.92,1.54-1.33,4-1.33,7.48v20.4h-10.56v-42.64l10.15,0.1
		V130.72L158.86,130.72z M246.3,99.15l-25.73,25.73l-6.77-6.77l25.73-25.73L246.3,99.15L246.3,99.15z M202.53,87.06v27.57H193V87.06
		H202.53L202.53,87.06z M225.28,145.07v-9.53h28.19v9.53H225.28L225.28,145.07z"/>
	<path fill="#FFFFFF" d="M212.27,129.8c-4.41-4.41-9.74-6.56-15.79-6.56s-11.28,2.15-15.58,6.56c-4.41,4.41-6.56,9.74-6.56,15.89
		c0,6.15,2.15,11.48,6.56,15.79c4.31,4.41,9.53,6.66,15.58,6.66s11.38-2.26,15.79-6.66c4.31-4.31,6.46-9.64,6.46-15.79
		C218.72,139.54,216.57,134.21,212.27,129.8L212.27,129.8z M204.78,153.99c-2.26,2.36-5.02,3.49-8.3,3.49
		c-3.18,0-5.95-1.13-8.2-3.49c-2.26-2.36-3.49-5.13-3.49-8.3c0-3.38,1.23-6.15,3.49-8.41c2.26-2.36,5.02-3.49,8.2-3.38
		c3.28-0.1,6.05,1.03,8.41,3.38c2.15,2.26,3.28,5.02,3.38,8.41C208.17,148.87,207.04,151.63,204.78,153.99L204.78,153.99z"/>
	<path fill="#E30613" d="M196.48,157.48c3.28,0,6.05-1.13,8.3-3.49c2.26-2.36,3.38-5.13,3.49-8.3c-0.1-3.38-1.23-6.15-3.49-8.41
		c-2.26-2.36-5.02-3.49-8.3-3.38c-3.18-0.1-5.95,1.03-8.2,3.38c-2.26,2.26-3.49,5.02-3.49,8.41c0,3.18,1.23,5.95,3.49,8.3
		C190.54,156.35,193.3,157.48,196.48,157.48L196.48,157.48z"/>
	<path fill="#FFFFFF" d="M56.15,112.27c-7.69-0.1-14.04,2.56-19.37,8.1c-5.43,5.43-8.1,11.89-8.1,19.58c0,7.59,2.67,14.25,8.1,19.68
		c5.33,5.33,11.69,8,19.37,8c6.15,0,11.79-1.85,16.71-5.64c4.82-3.9,8-8.71,9.64-14.66H71.32c-1.44,2.87-3.49,5.23-6.05,7.07
		c-2.87,1.74-5.84,2.67-9.12,2.67c-4.72,0-8.71-1.74-11.99-5.02c-3.38-3.38-5.02-7.38-4.92-12.1c-0.1-4.72,1.54-8.71,4.92-12.1
		c3.28-3.28,7.28-5.02,11.99-5.02c3.28,0,6.25,0.92,9.12,2.77c2.56,1.74,4.61,4.2,6.05,7.07h11.17c-1.64-5.95-4.82-10.87-9.64-14.66
		C67.94,114.12,62.3,112.17,56.15,112.27L56.15,112.27z"/>
	<path fill="#FFFFFF" d="M123.8,123.14c-7.18-0.1-12.2,1.85-15.07,5.64c-1.85,2.36-2.77,5.43-3.08,9.33h10.66
		c0.21-1.85,0.82-3.08,1.54-3.9c1.13-1.44,2.97-2.15,5.64-2.05c2.26-0.1,4,0.31,5.23,1.03c1.23,0.61,1.74,1.85,1.85,3.59
		c0,1.44-0.82,2.56-2.46,3.28l-8.2,1.33c-3.79,0.51-6.87,1.44-9.23,2.77c-4,2.36-5.95,6.15-5.84,11.58
		c-0.1,3.79,1.13,6.87,3.59,9.12c2.15,1.85,5.13,2.87,8.71,2.97c5.84-0.1,10.46-1.54,13.74-4.41v4.41h10.66v-31.37
		c0-5.13-1.85-8.71-5.33-10.56C132.52,123.96,128.42,123.04,123.8,123.14L123.8,123.14z M128.31,147.23l2.05-1.13v4.31
		c0,3.69-1.03,6.25-2.97,7.69c-2.05,1.44-4.2,2.15-6.66,2.15c-1.54,0-2.77-0.41-3.79-1.23c-1.03-0.92-1.54-2.26-1.54-4.2
		c0-2.15,0.82-3.69,2.56-4.82c1.03-0.62,2.77-1.13,5.02-1.44L128.31,147.23L128.31,147.23z"/>
	<path fill="#E30613" d="M130.36,146.1l-2.05,1.13l-5.33,1.33c-2.26,0.31-4,0.82-5.02,1.44c-1.74,1.13-2.56,2.67-2.56,4.82
		c0,1.95,0.51,3.28,1.54,4.2c1.03,0.82,2.26,1.23,3.79,1.23c2.46,0,4.61-0.72,6.66-2.15c1.95-1.44,2.97-4,2.97-7.69V146.1
		L130.36,146.1z"/>
	<polygon fill="#FFFFFF" points="98.59,112.27 87.93,112.27 87.93,167.83 98.59,167.83 98.59,112.27 	"/>
	<path fill="#FFFFFF" d="M166.45,124.68c-2.87,1.13-5.43,3.08-7.59,6.05v-5.43l-10.15-0.1v42.64h10.56v-20.4
		c0-3.49,0.41-5.95,1.33-7.48c0.72-1.64,2.05-2.97,3.69-4.1c1.85-1.23,3.79-1.85,5.84-1.85l3.28,0.21l-0.1-10.87l-2.77,0.2
		L166.45,124.68L166.45,124.68z"/>
	<polygon fill="#FFFFFF" points="220.57,124.88 246.3,99.15 239.53,92.39 213.8,118.12 220.57,124.88 	"/>
	<polygon fill="#FFFFFF" points="202.53,114.63 202.53,87.06 193,87.06 193,114.63 202.53,114.63 	"/>
	<polygon fill="#FFFFFF" points="225.28,135.54 225.28,145.07 253.47,145.07 253.47,135.54 225.28,135.54 	"/>
</g>
</svg>
